<svg width="72" height="72" viewBox="0 0 72 72" fill="none" xmlns="http://www.w3.org/2000/svg">
<path d="M28.5 19C26.1 19 23.167 22.333 22 24L28 26C27.5 24.167 26.9 20.2 28.5 19Z" fill="#61B2E4"/>
<path fill-rule="evenodd" clip-rule="evenodd" d="M48.78 47.41C54.376 43.215 57.997 36.53 57.997 29C57.9985 27.4059 57.8343 25.8161 57.507 24.256C51.2283 21.2059 46.3397 15.8884 43.827 9.37598C38.468 13.388 35 19.786 35 26.996C35 36.242 40.703 44.156 48.78 47.406V47.41Z" fill="#92D3F5"/>
<path d="M36 49C43.1797 49 49 43.1797 49 36C49 28.8203 43.1797 23 36 23C28.8203 23 23 28.8203 23 36C23 43.1797 28.8203 49 36 49Z" fill="#1E50A0" stroke="#1E50A0" stroke-width="2"/>
<path fill-rule="evenodd" clip-rule="evenodd" d="M39 48.05C39.801 48.246 40.638 48.35 41.5 48.35C47.299 48.35 52 43.648 52 37.85C52 32.052 47.299 27.35 41.5 27.35C40.639 27.35 39.801 27.453 39 27.649C43.592 28.771 47 32.912 47 37.849C47 42.786 43.592 46.929 39 48.05Z" fill="#92D3F5"/>
<path d="M39 48.05L38.763 47.079V49.021L39 48.05ZM39 27.65L38.763 26.679V28.622L39 27.65ZM41.5 47.35C40.72 47.35 39.961 47.256 39.237 47.08L38.762 49.022C39.641 49.237 40.557 49.35 41.499 49.35L41.5 47.35ZM51 37.85C51 40.3695 49.9991 42.7859 48.2175 44.5675C46.4359 46.3491 44.0195 47.35 41.5 47.35L41.499 49.35C47.85 49.35 53 44.201 53 37.85H51ZM41.5 28.35C44.0195 28.35 46.4359 29.3509 48.2175 31.1325C49.9991 32.9141 51 35.3304 51 37.85H53C53 31.499 47.851 26.35 41.5 26.35V28.35ZM39.237 28.62C39.9778 28.4395 40.7376 28.3488 41.5 28.35V26.35C40.558 26.35 39.641 26.463 38.763 26.678L39.237 28.62ZM38.762 28.62C42.917 29.637 46 33.385 46 37.85H48C48 32.44 44.267 27.906 39.237 26.68L38.762 28.62ZM46 37.85C46 42.316 42.918 46.064 38.763 47.079L39.238 49.022C44.266 47.794 48 43.259 48 37.852L46 37.85Z" fill="#92D3F5"/>
<path d="M27.5 25C25.5 23 22.333 22.833 21 23H20V33.5H31L36 31.5C32.5 31.5 30 27.5 27.5 25Z" fill="#61B2E4"/>
<path fill-rule="evenodd" clip-rule="evenodd" d="M11 36.5C11 29.034 14.209 22.32 19.322 17.65C19.583 17.412 20 17.617 20 17.97V17.996C20 19.707 20.306 21.346 20.868 22.861C20.9005 22.9456 20.9033 23.0386 20.876 23.125C20.2063 25.3111 19.9164 27.5959 20.019 29.88L20.017 29.9L20.002 29.983C20.0016 29.9847 20.0015 29.9865 20.0018 29.9883C20.0022 29.99 20.0029 29.9917 20.0039 29.9931C20.005 29.9946 20.0064 29.9957 20.0079 29.9966C20.0095 29.9974 20.0112 29.9979 20.013 29.998C20.0197 29.9987 20.0237 30.0023 20.025 30.009L20.028 30.078C20.031 30.129 20.078 30.168 20.128 30.16C20.328 30.132 20.5347 30.107 20.748 30.085C20.7542 30.0846 20.7602 30.0823 20.765 30.0783C20.7699 30.0744 20.7733 30.069 20.775 30.063C20.777 30.0565 20.7812 30.0509 20.7868 30.0471C20.7925 30.0433 20.7992 30.0415 20.806 30.042L21.064 30.056C21.515 30.019 21.994 29.996 22.5 29.996C24.317 29.996 25.865 30.536 27.353 31.055C28.731 31.535 30.057 31.997 31.5 31.997C33.045 31.997 34.259 31.859 35.06 31.716C35.412 31.653 35.703 32.029 35.495 32.319C35.02 32.979 34.314 33.726 33.5 33.997C33.176 34.105 32.643 34.166 31.99 34.241C29.62 34.514 25.676 34.968 24.5 38.497L24.463 38.657C24.4492 38.7173 24.4495 38.7799 24.464 38.84C24.8802 40.5277 25.5704 42.1357 26.507 43.6C26.5273 43.6313 26.5519 43.6595 26.58 43.684C29.688 46.379 33.665 47.997 38 47.997C47.942 47.997 56 39.49 56 28.997C56 24.873 54.756 21.055 52.64 17.937C52.37 17.538 52.901 16.961 53.265 17.279C58.618 21.953 62 28.829 62 36.499C62 50.579 50.58 61.999 36.5 61.999C22.42 61.999 11 50.58 11 36.5Z" fill="#61B2E4"/>
<path d="M22.5 30C19.7 30 17.667 30.667 17 31C17 31 19 35 23 35C23 35 24 37 25 41C25.5 34.5 32 34.5 33.5 34C34.7 33.6 35.667 32.167 36 31.5C35.5 31.667 33.9 32 31.5 32C28.5 32 26 30 22.5 30Z" fill="#92D3F5"/>
<path fill-rule="evenodd" clip-rule="evenodd" d="M61.88 34.39C60.646 47.32 49.75 57.44 36.5 57.44C23.25 57.44 12.35 47.32 11.12 34.39C11.0427 35.2051 11.004 36.0233 11.004 36.842C11.004 50.922 22.424 62.342 36.504 62.342C50.584 62.342 62.004 50.922 62.004 36.842C62.004 36.0147 61.965 35.1973 61.887 34.39H61.88Z" fill="#1E50A0"/>
<path d="M52 37.85C52 32.051 47.299 27.35 41.5 27.35C40.639 27.35 39.801 27.454 39 27.65C43.592 28.772 47 32.913 47 37.85C47 42.787 43.592 46.877 39 48C35 48.976 27.5 47.5 24.5 41" stroke="black" stroke-width="2" stroke-linecap="round" stroke-linejoin="round"/>
<path d="M55.05 22.9C49.9318 19.7349 45.9882 14.9837 43.82 9.37C40.0724 12.1723 37.3146 16.0951 35.946 20.57M34.993 31.38C32.753 30.886 30.925 28.81 29.2 26.852C28.7543 26.3388 28.2985 25.8343 27.833 25.339C27.39 23.345 27.063 20.063 28.493 18.991C26.515 18.991 24.175 21.255 22.76 22.985C22.1444 22.9326 21.5253 22.9346 20.91 22.991V22.987C20.1854 21.0862 19.8837 19.0503 20.026 17.021C14.501 21.699 10.993 28.681 10.993 36.491V36.83C10.993 50.91 22.413 62.33 36.493 62.33C50.573 62.33 61.993 50.91 61.993 36.83V36.49C61.993 28.939 58.71 22.15 53.493 17.48" stroke="black" stroke-width="2" stroke-linecap="round" stroke-linejoin="round"/>
<path d="M30 24.46C31.8527 23.4952 33.9112 22.993 36 22.996C38.368 22.996 40.588 23.629 42.5 24.735" stroke="black" stroke-width="2" stroke-linecap="round"/>
</svg>
